<?xml version="1.0" standalone="no"?>
<!DOCTYPE svg PUBLIC "-//W3C//DTD SVG 20010904//EN"
 "http://www.w3.org/TR/2001/REC-SVG-20010904/DTD/svg10.dtd">
<svg version="1.0" xmlns="http://www.w3.org/2000/svg"
 width="200.000000pt" height="200.000000pt" viewBox="0 0 200.000000 200.000000"
 preserveAspectRatio="xMidYMid meet">
<metadata>
Created by potrace 1.11, written by Peter Selinger 2001-2013
</metadata>
<g transform="translate(0.000000,200.000000) scale(0.100000,-0.100000)"
fill="#000000" stroke="none">
<path d="M394 1466 l-34 -34 0 -432 0 -432 34 -34 c24 -24 43 -34 65 -34 39 0
87 24 101 49 14 27 14 875 0 902 -14 25 -62 49 -101 49 -22 0 -41 -10 -65 -34z"/>
<path d="M1484 1490 c-54 -22 -54 -19 -54 -488 0 -278 4 -440 10 -453 14 -25
62 -49 101 -49 22 0 41 10 65 34 l34 34 0 432 0 432 -34 34 c-35 35 -75 43
-122 24z"/>
<path d="M272 1383 c-7 -3 -19 -18 -27 -33 -22 -42 -22 -657 0 -699 13 -26 33
-41 56 -41 5 0 9 160 9 390 0 402 0 399 -38 383z"/>
<path d="M1690 1000 c0 -230 4 -390 9 -390 23 0 43 15 56 41 22 41 22 657 0
698 -13 26 -33 41 -56 41 -5 0 -9 -160 -9 -390z"/>
<path d="M134 1079 c-42 -44 -42 -114 0 -158 17 -17 33 -31 38 -31 4 0 8 50 8
110 0 61 -4 110 -8 110 -5 0 -21 -14 -38 -31z"/>
<path d="M1820 1000 c0 -60 4 -110 8 -110 5 0 21 14 38 31 24 25 29 39 29 79
0 40 -5 54 -29 79 -17 17 -33 31 -38 31 -4 0 -8 -49 -8 -110z"/>
<path d="M620 1000 l0 -90 380 0 380 0 0 90 0 90 -380 0 -380 0 0 -90z"/>
</g>
</svg>
